/* XPM */
static char *f78c08f007d84cb991760dd10e3033c2DnVgCzFp8t9FySfi[] = {
/* columns rows colors chars-per-pixel */
"10 10 5 1 ",
"  c None",
". c #EE8E2E",
"X c #FDF7ED",
"o c #FACB3E",
"O c white",
/* pixels */
"          ",
"    .X    ",
"   .ooX   ",
"  .ooooX  ",
"  .ooooX  ",
"  .ooooX  ",
"   .ooX   ",
"    .X    ",
"          ",
"          "
};
