/* XPM */
static char *f78c08f007d84cb991760dd10e3033c2DnVgCzFp8t9FySfi[] = {
/* columns rows colors chars-per-pixel */
"16 16 5 1 ",
"  c #483B3A",
". c #EE8E2E",
"X c #FDF7ED",
"o c #FACB3E",
"O c white",
/* pixels */
"                ",
"                ",
"       .X       ",
"      .ooX      ",
"     .ooooX     ",
"    .ooooooX    ",
"    .ooooooX    ",
"   .ooooooooX   ",
"   .ooooooooX   ",
"    .ooooooX    ",
"    .ooooooX    ",
"     .ooooX     ",
"      .ooX      ",
"       .X       ",
"                ",
"                ",
};
